<?xml version="1.0" standalone="no"?><!DOCTYPE svg PUBLIC "-//W3C//DTD SVG 1.1//EN" "http://www.w3.org/Graphics/SVG/1.1/DTD/svg11.dtd"><svg t="1492696810919" class="icon" style="" viewBox="0 0 1024 1024" version="1.1" xmlns="http://www.w3.org/2000/svg" p-id="5557" xmlns:xlink="http://www.w3.org/1999/xlink" width="200" height="200"><defs><style type="text/css"></style></defs><path d="M759.634656 322.641351 603.072249 479.203757 446.612171 322.641351 415.29969 353.953832 571.759768 510.516239 415.29969 666.976317 446.612171 698.288798 603.072249 541.82872 759.634656 698.288798 790.947137 666.976317 634.384731 510.516239 790.947137 353.953832Z" p-id="5558" fill="#1296db"></path><path d="M802.305586 200.563605c60.987709 0 110.616968 49.62926 110.616968 110.616968l0 398.364345c0 61.090037-49.526931 110.616968-110.616968 110.616968L426.044169 820.161887c-55.666633 0-267.281703-257.458179-304.324573-302.994304-3.274508-4.093135-3.274508-9.618867 0-13.712002 37.04287-45.638453 248.657939-302.994304 304.324573-302.994304L802.305586 200.461277M802.305586 156.35775 426.044169 156.35775c-78.178875 0-320.390127 298.184871-359.786549 347.302488-3.274508 4.093135-3.274508 9.618867 0 13.609673 39.396423 49.117618 281.607675 347.302488 359.786549 347.302488l376.261417 0c85.239532 0 154.925152-69.68562 154.925152-154.925152L957.230738 311.282902C957.230738 226.04337 887.545118 156.35775 802.305586 156.35775L802.305586 156.35775z" p-id="5559" fill="#1296db"></path></svg>