<?xml version="1.0" standalone="no"?><!DOCTYPE svg PUBLIC "-//W3C//DTD SVG 1.1//EN" "http://www.w3.org/Graphics/SVG/1.1/DTD/svg11.dtd"><svg t="1493474161307" class="icon" style="" viewBox="0 0 1024 1024" version="1.1" xmlns="http://www.w3.org/2000/svg" p-id="13805" xmlns:xlink="http://www.w3.org/1999/xlink" width="200" height="200"><defs><style type="text/css"></style></defs><path d="M509.14816 52.319232c-261.855232 0-474.112 212.287488-474.112 474.112 0 261.82656 212.256768 474.112 474.112 474.112 261.854208 0 474.112-212.28544 474.112-474.112C983.26016 264.60672 771.002368 52.319232 509.14816 52.319232zM718.249984 379.603968l-148.10112 148.160512 133.284864 145.323008c17.362944 17.363968 17.362944 45.54752 0 62.912512-17.36192 17.301504-45.54752 17.301504-62.852096 0l-133.31456-145.383424-144.45568 144.456704c-17.36192 17.301504-45.402112 17.301504-62.736384 0-17.304576-17.3056-17.304576-45.432832 0-62.739456l147.20512-147.1744L313.99424 379.778048c-17.362944-17.363968-17.362944-45.4912 0-62.823424 17.362944-17.39264 45.518848-17.39264 62.880768 0l133.287936 145.352704 145.409024-145.3824c17.335296-17.3056 45.374464-17.3056 62.738432 0C735.555584 334.229504 735.555584 362.299392 718.249984 379.603968z" p-id="13806" fill="#1296db"></path></svg>