<?xml version="1.0" standalone="no"?><!DOCTYPE svg PUBLIC "-//W3C//DTD SVG 1.1//EN" "http://www.w3.org/Graphics/SVG/1.1/DTD/svg11.dtd"><svg t="1492681292023" class="icon" style="" viewBox="0 0 1024 1024" version="1.1" xmlns="http://www.w3.org/2000/svg" p-id="5016" xmlns:xlink="http://www.w3.org/1999/xlink" width="64" height="64"><defs><style type="text/css"></style></defs><path d="M784.745894 387.354142 575.120596 173.068707c-6.407943-6.550183-15.183817-10.242272-24.348548-10.242272L173.052335 162.826436c-18.812461 0-34.059724 15.249309-34.059724 34.060747l0 725.060537c0 18.811438 15.248286 34.060747 34.059724 34.060747l587.345012 0c18.810415 0 34.059724-15.250332 34.059724-34.060747L794.45707 411.172617C794.45707 402.267806 790.972713 393.718083 784.745894 387.354142zM645.683698 811.515584 287.768029 811.515584c-14.120602 0-25.565259-11.44568-25.565259-25.565259 0-14.119579 11.444657-25.565259 25.565259-25.565259l357.915669 0c14.118556 0 25.565259 11.44568 25.565259 25.565259C671.248957 800.069905 659.802254 811.515584 645.683698 811.515584zM645.683698 722.036667 287.768029 722.036667c-14.120602 0-25.565259-11.44568-25.565259-25.565259 0-14.119579 11.444657-25.565259 25.565259-25.565259l357.915669 0c14.118556 0 25.565259 11.44568 25.565259 25.565259C671.248957 710.590987 659.802254 722.036667 645.683698 722.036667zM645.683698 636.113739 287.768029 636.113739c-14.120602 0-25.565259-11.44568-25.565259-25.565259s11.444657-25.565259 25.565259-25.565259l357.915669 0c14.118556 0 25.565259 11.44568 25.565259 25.565259S659.802254 636.113739 645.683698 636.113739zM565.101405 397.282259 565.101405 228.480738l173.266206 168.800497L565.101405 397.281235z" p-id="5017" fill="#1296db"></path><path d="M870.444718 297.638841 660.811234 83.353406c-9.553587-9.761318-22.868847-15.362896-36.534078-15.362896L246.571768 67.99051c-28.178783 0-51.114145 22.927175-51.114145 51.105958l0 43.728944 34.087353 0 0-43.728944c0-9.387811 7.640004-17.018605 17.026792-17.018605l377.705388 0c4.560876 0 8.987698 1.864464 12.167111 5.109368l209.633484 214.285434c3.12927 3.195785 4.843308 7.423063 4.843308 11.901051l0 510.776126c0 9.387811-7.622608 17.018605-17.010419 17.018605l-39.452547 0 0 34.087353 39.452547 0c28.178783 0 51.097772-22.927175 51.097772-51.105958L885.008412 333.373717C885.007389 319.933613 879.831506 307.24257 870.444718 297.638841z" p-id="5018" fill="#1296db"></path></svg>