<?xml version="1.0" standalone="no"?><!DOCTYPE svg PUBLIC "-//W3C//DTD SVG 1.1//EN" "http://www.w3.org/Graphics/SVG/1.1/DTD/svg11.dtd"><svg t="1492681466587" class="icon" style="" viewBox="0 0 1024 1024" version="1.1" xmlns="http://www.w3.org/2000/svg" p-id="10229" xmlns:xlink="http://www.w3.org/1999/xlink" width="64" height="64"><defs><style type="text/css"></style></defs><path d="M942.1952 140.8H463.0528l-40.6144-89.6H88.32A37.12 37.12 0 0 0 51.2 88.3328v853.8496C51.2 962.7008 67.8144 972.8 88.32 972.8h853.8752C962.7008 972.8 972.8 962.7008 972.8 942.1824V178.5728C972.8 158.0544 962.7008 140.8 942.1952 140.8z" fill="#DD852F" p-id="10230"></path><path d="M199.1552 171.3024L100.9536 728.2176c-3.5456 20.1984 9.7408 36.1472 25.9072 39.0144l672.7168 118.6176c16.1664 2.8544 34.1248-7.5904 37.6832-27.776l98.1888-556.9408-736.2944-129.8304z" fill="#FFFFFF" p-id="10231"></path><path d="M51.2 384v558.1824C51.2 962.7008 67.8144 972.8 88.32 972.8h853.8752C962.7008 972.8 972.8 962.7008 972.8 942.1824V384H51.2z" fill="#EAC375" p-id="10232"></path></svg>