<?xml version="1.0" standalone="no"?><!DOCTYPE svg PUBLIC "-//W3C//DTD SVG 1.1//EN" "http://www.w3.org/Graphics/SVG/1.1/DTD/svg11.dtd"><svg t="1492676444126" class="icon" style="" viewBox="0 0 1024 1024" version="1.1" xmlns="http://www.w3.org/2000/svg" p-id="10650" xmlns:xlink="http://www.w3.org/1999/xlink" width="64" height="64"><defs><style type="text/css"></style></defs><path d="M510.641049 959.828468c-246.572792 0-447.165366-200.595644-447.165366-447.156156 0-246.576885 200.593598-447.172529 447.165366-447.172529 246.561535 0 447.165366 200.595644 447.165366 447.172529C957.807439 759.232824 757.202585 959.828468 510.641049 959.828468zM510.641049 119.589702c-216.741369 0-393.077493 176.338171-393.077493 393.081587 0 216.752626 176.336124 393.066237 393.077493 393.066237s393.077493-176.338171 393.077493-393.066237C903.718543 295.939129 727.383442 119.589702 510.641049 119.589702z" fill="#1296db" p-id="10651"></path><path d="M428.872744 485.626329l285.292652 0 0 54.083779L428.872744 539.710109 428.872744 485.626329z" fill="#1296db" p-id="10652"></path><path d="M428.859441 341.725942l285.292652 0 0 54.092989L428.859441 395.818931 428.859441 341.725942z" fill="#1296db" p-id="10653"></path><path d="M428.846138 629.508297l285.305955 0 0 54.092989L428.846138 683.601286 428.846138 629.508297z" fill="#1296db" p-id="10654"></path><path d="M320.692906 485.61098l55.412031 0 0 54.099129-55.412031 0L320.692906 485.61098z" fill="#1296db" p-id="10655"></path><path d="M320.67858 341.714685l55.412031 0 0 54.089919-55.412031 0L320.67858 341.714685z" fill="#1296db" p-id="10656"></path><path d="M320.667324 629.508297l55.423287 0 0 54.092989L320.667324 683.601286 320.667324 629.508297z" fill="#1296db" p-id="10657"></path></svg>