<?xml version="1.0" standalone="no"?><!DOCTYPE svg PUBLIC "-//W3C//DTD SVG 1.1//EN" "http://www.w3.org/Graphics/SVG/1.1/DTD/svg11.dtd"><svg t="1492673545564" class="icon" style="" viewBox="0 0 1024 1024" version="1.1" xmlns="http://www.w3.org/2000/svg" p-id="2369" xmlns:xlink="http://www.w3.org/1999/xlink" width="64" height="64"><defs><style type="text/css"></style></defs><path d="M256 818.962908 252.848005 818.933719C147.517902 818.933719 51.2 710.1839 51.2 603.298063 51.2 484.429509 129.186265 384.733301 224.019202 358.318067 264.881342 244.136086 389.362374 153.6 523.572485 153.6 667.972531 153.6 787.640228 260.006529 811.50208 391.17734 714.057651 398.846279 628.544148 445.019683 598.384 504.7735 586.453074 532.253865 583.534346 540.135828 598.384 534.117842 634.996065 463.979004 714.468961 424.782204 799.9808 417.326292 854.222915 424.782204 899.079813 430.612959 944.0224 505.572347 960.613048 534.064589 972.8 577.163638 972.8 637.67273 972.8 728.436362 884.162949 819.2 793.887319 819.2L700.8 819.2 256 819.2 256 818.962908ZM460.8 716.8 512 716.8 512 819.2 460.8 819.2 460.8 716.8ZM614.4 716.8 665.6 716.8 665.6 819.2 614.4 819.2 614.4 716.8ZM307.2 716.8 358.4 716.8 358.4 819.2 307.2 819.2 307.2 716.8Z" p-id="2370" fill="#1296db"></path></svg>