<?xml version="1.0" standalone="no"?><!DOCTYPE svg PUBLIC "-//W3C//DTD SVG 1.1//EN" "http://www.w3.org/Graphics/SVG/1.1/DTD/svg11.dtd"><svg t="1492676995697" class="icon" style="" viewBox="0 0 1024 1024" version="1.1" xmlns="http://www.w3.org/2000/svg" p-id="51298" xmlns:xlink="http://www.w3.org/1999/xlink" width="64" height="64"><defs><style type="text/css"></style></defs><path d="M112.033185 0h798.568296c58.55763 4.399407 108.013037 53.475556 113.398519 111.881481v798.795852c-4.399407 58.55763-53.551407 107.937185-111.881481 113.322667H113.246815C54.765037 1019.600593 5.461333 970.448593 0 912.270222V113.322667C4.475259 54.765037 53.627259 5.30963 112.033185 0m415.819852 197.214815c0.075852 125.079704-0.227556 250.159407 0.151704 375.239111-61.819259-12.970667-130.389333 0.682667-179.237926 41.642667-22.224593 18.583704-40.808296 50.669037-26.093037 79.341037 16.990815 30.340741 54.309926 40.049778 86.698666 41.642666 55.675259 1.517037 115.218963-15.928889 154.055112-57.495703 14.184296-14.639407 21.541926-34.740148 20.631703-54.992593-0.379259-97.46963-1.441185-194.863407-1.66874-292.257185 37.546667 19.873185 75.093333 45.056 98.228148 81.464889 25.258667 43.235556 3.716741 93.37363-10.012445 136.609185 28.292741 6.295704 36.105481-25.258667 44.676741-44.904296 20.176593-47.028148 23.74163-105.509926-8.419556-148.138667C666.965333 301.283556 592.782222 270.260148 582.162963 197.214815h-54.309926z" fill="#00D1A4" p-id="51299"></path><path d="M527.853037 197.214815h54.309926c10.619259 73.045333 84.80237 104.068741 124.700444 158.151111 32.161185 42.628741 28.596148 101.110519 8.419556 148.138667-8.571259 19.64563-16.384 51.2-44.676741 44.904296 13.729185-43.235556 35.271111-93.37363 10.012445-136.609185-23.134815-36.408889-60.681481-61.591704-98.228148-81.464889 0.227556 97.393778 1.289481 194.787556 1.66874 292.257185 0.910222 20.252444-6.447407 40.353185-20.631703 54.992593-38.836148 41.566815-98.379852 59.012741-154.055112 57.495703-32.388741-1.592889-69.707852-11.301926-86.698666-41.642666-14.715259-28.672 3.868444-60.757333 26.093037-79.341037 48.848593-40.96 117.418667-54.613333 179.237926-41.642667-0.379259-125.079704-0.075852-250.159407-0.151704-375.239111z" fill="#FFFFFF" p-id="51300"></path></svg>