<?xml version="1.0" standalone="no"?><!DOCTYPE svg PUBLIC "-//W3C//DTD SVG 1.1//EN" "http://www.w3.org/Graphics/SVG/1.1/DTD/svg11.dtd"><svg t="1492676531992" class="icon" style="" viewBox="0 0 1024 1024" version="1.1" xmlns="http://www.w3.org/2000/svg" p-id="14326" xmlns:xlink="http://www.w3.org/1999/xlink" width="64" height="64"><defs><style type="text/css"></style></defs><path d="M119.8 66.6h782c30.8 0 55.9 25 55.9 55.9v782c0 30.8-25 55.9-55.9 55.9h-782c-30.8 0-55.9-25-55.9-55.9v-782c0-30.9 25-55.9 55.9-55.9z" fill="#5D9CEC" p-id="14327"></path><path d="M754.7 162.4c52.6 0 95.2 42.6 95.2 95.2s-42.6 95.2-95.2 95.2-95.2-42.6-95.2-95.2 42.7-95.2 95.2-95.2z" fill="#FFCE54" p-id="14328"></path><path d="M957.6 867.5v36.9c0 30.8-25 55.9-55.9 55.9h-782c-30.8 0-55.9-25-55.9-55.9v-238l299.4-314.1 134 173.1 67 87.8 91.4-118.6 302 372.9z" fill="#A0D468" p-id="14329"></path><path d="M564.2 613.3l-267 346.9 199.5-434.5z" fill="#32383F" p-id="14330"></path></svg>