<?xml version="1.0" standalone="no"?><!DOCTYPE svg PUBLIC "-//W3C//DTD SVG 1.1//EN" "http://www.w3.org/Graphics/SVG/1.1/DTD/svg11.dtd"><svg t="1492695715407" class="icon" style="" viewBox="0 0 1025 1024" version="1.1" xmlns="http://www.w3.org/2000/svg" p-id="1309" xmlns:xlink="http://www.w3.org/1999/xlink" width="200.1953125" height="200"><defs><style type="text/css"></style></defs><path d="M512.01759 1024C229.69388 1024 0 794.341301 0 512.01759S229.69388 0 512.01759 0c282.307377 0 512 229.692623 512 512.01759S794.32371 1024 512.01759 1024zM512.01759 35.432913c-262.791067 0-476.583421 213.809944-476.583421 476.583421s213.79361 476.549497 476.583421 476.549497 476.567087-213.77602 476.567087-476.549497S774.808658 35.432913 512.01759 35.432913z" p-id="1310" fill="#1296db"></path><path d="M803.87518 572.088069 516.722964 572.088069c-9.792707 0-17.717085-7.924378-17.717085-17.717085L499.00588 271.909065c0-9.792707 7.924378-17.717085 17.717085-17.717085 9.792707 0 17.717085 7.924378 17.717085 17.717085l0 264.746091 269.435131 0c9.792707 0 17.717085 7.924378 17.717085 17.717085C821.591009 564.163691 813.666631 572.088069 803.87518 572.088069z" p-id="1311" fill="#1296db"></path></svg>