<?xml version="1.0" standalone="no"?><!DOCTYPE svg PUBLIC "-//W3C//DTD SVG 1.1//EN" "http://www.w3.org/Graphics/SVG/1.1/DTD/svg11.dtd"><svg t="1492676838408" class="icon" style="" viewBox="0 0 1024 1024" version="1.1" xmlns="http://www.w3.org/2000/svg" p-id="40748" xmlns:xlink="http://www.w3.org/1999/xlink" width="64" height="64"><defs><style type="text/css"></style></defs><path d="M514.142292 3.300162c-281.588283 0-509.839801 228.271984-509.839801 509.839801s228.251517 509.836731 509.839801 509.836731c281.563724 0 509.836731-228.268914 509.83673-509.836731-0.001023-281.566794-228.273007-509.839801-509.83673-509.839801z" fill="#185FA8" p-id="40749"></path><path d="M595.714122 479.515145h-40.786939v122.359792h40.786939V479.515145z m40.787962-122.359792V295.973922c0-22.544459-18.261922-40.787962-40.786939-40.787962H473.35433c-22.526039 0-40.786938 18.243503-40.786939 40.787962v61.181431H289.813107v40.784892h46.223764l55.741535 387.480008H677.289022l55.742559-387.480008h46.223764v-40.784892H636.502084zM473.35433 295.973922h122.360815v61.181431H473.35433V295.973922z m171.790598 448.658369H423.924547l-38.936801-346.692046h299.090913L645.144928 744.632291zM514.142292 479.515145H473.35433v122.359792h40.787962V479.515145z" fill="#F5F5F5" p-id="40750"></path></svg>