<?xml version="1.0" standalone="no"?><!DOCTYPE svg PUBLIC "-//W3C//DTD SVG 1.1//EN" "http://www.w3.org/Graphics/SVG/1.1/DTD/svg11.dtd"><svg t="1492699379517" class="icon" style="" viewBox="0 0 1024 1024" version="1.1" xmlns="http://www.w3.org/2000/svg" p-id="6229" xmlns:xlink="http://www.w3.org/1999/xlink" width="200" height="200"><defs><style type="text/css"></style></defs><path d="M130.442376 602.995457l379.165646 0 0-206.718085-379.165646 0L130.442376 602.995457zM592.987011 196.415438l56.527434 0 0 112.49205L56.774563 308.907489l0 382.603955 592.739882 0 0 123.912148-56.527434 0 0 47.399543 144.470369 0 0-47.399543-50.827619 0 0-123.912148 249.552659 0 0-382.603955L686.629761 308.907489l0-112.49205 50.827619 0 0-47.399543-144.470369 0L592.987011 196.415438zM92.754009 343.16778l556.76146 0 0 319.783187L92.754009 662.950967 92.754009 343.16778zM904.204102 343.16778l0 319.783187L686.629761 662.950967l0-319.783187L904.204102 343.16778z" p-id="6230" fill="#1296db"></path></svg>