<?xml version="1.0" standalone="no"?><!DOCTYPE svg PUBLIC "-//W3C//DTD SVG 1.1//EN" "http://www.w3.org/Graphics/SVG/1.1/DTD/svg11.dtd"><svg t="1492773175595" class="icon" style="" viewBox="0 0 1025 1024" version="1.1" xmlns="http://www.w3.org/2000/svg" p-id="2378" xmlns:xlink="http://www.w3.org/1999/xlink" width="64.0625" height="64"><defs><style type="text/css"></style></defs><path d="M936.362264 503.56442C900.243666 618.826954 601.726146 705.956873 390.742857 445.208625c98.585445 79.043666 388.342857 115.936388 453.167655-20.383827-87.331536-45.687332-116.172507-58.490566-116.172507-58.490566l296.495957-20.619946L1003.612938 636.077628C1003.612938 636.077628 958.329919 549.892183 936.362264 503.56442zM250.31159 823.004852c-9.636658 0-17.453369-7.816712-17.453369-17.385445L232.858221 654.609164c0-9.636658 7.816712-17.453369 17.453369-17.453369l31.334771 0c9.636658 0 17.453369 7.816712 17.453369 17.453369L299.09973 805.619407c0 9.568733-7.816712 17.385445-17.453369 17.385445L250.31159 823.004852zM401.591375 823.004852c-9.636658 0-17.453369-7.816712-17.453369-17.385445L384.138005 654.609164c0-9.636658 7.816712-17.453369 17.453369-17.453369l31.334771 0c9.636658 0 17.453369 7.816712 17.453369 17.453369L450.379515 805.619407c0 9.568733-7.816712 17.385445-17.453369 17.385445L401.591375 823.004852zM552.872237 823.004852c-9.636658 0-17.453369-7.816712-17.453369-17.385445L535.418868 654.609164c0-9.636658 7.816712-17.453369 17.453369-17.453369l31.334771 0c9.703504 0 17.520216 7.816712 17.520216 17.453369L601.727224 805.619407c0 9.568733-7.816712 17.385445-17.520216 17.385445L552.872237 823.004852zM834.475472 282.944474l-682.715903-0.50566 0 576.213477c0 34.973585 28.33531 63.275472 63.308895 63.275472l440.97035 0c34.973585 0 63.342318-28.301887 63.342318-63.275472L719.381132 755.215094l0 0c0-0.134771 0-0.269542 0-0.404313 0-18.598383 15.229111-33.625876 34.097035-33.625876s34.097035 15.027493 34.097035 33.625876c0 3.09973-1.011321 5.929919-1.752022 8.760108l1.752022 0.202695L787.575202 926.913208c0 34.90566-28.301887 63.207547-63.275472 63.207547L147.81779 990.120755c-34.939084 0-63.275472-28.301887-63.275472-63.207547L84.542318 282.371968l-62.095957-0.033423c-12.432345 0-22.506739-10.14124-22.473315-22.608086l0.067925-22.608086c0.067925-12.50027 10.175741-22.608086 22.641509-22.608086l157.918059 0.134771 0.437736-135.647439c0.067925-24.966038 20.350404-45.181671 45.249596-45.148248l383.524528 0.269542c24.865768 0 45.013477 20.283558 44.878706 45.249596l-0.404313 135.612938L594.044205 214.952022l240.700809 0.168194c12.398922 0.033423 22.506739 10.14124 22.506739 22.641509L857.116981 260.369811C857.116981 272.836658 847.009164 282.944474 834.475472 282.944474zM541.887871 101.879245l-248.146631-0.168194c-24.899191-0.033423-45.181671 20.18221-45.249596 45.148248l-0.236119 67.823181 338.37628 0.269542 0.202695-67.823181C586.901348 122.162803 566.820485 101.913747 541.887871 101.879245z" p-id="2379" fill="#1296db"></path></svg>