<?xml version="1.0" standalone="no"?><!DOCTYPE svg PUBLIC "-//W3C//DTD SVG 1.1//EN" "http://www.w3.org/Graphics/SVG/1.1/DTD/svg11.dtd"><svg t="1492786724659" class="icon" style="" viewBox="0 0 1024 1024" version="1.1" xmlns="http://www.w3.org/2000/svg" p-id="14266" xmlns:xlink="http://www.w3.org/1999/xlink" width="200" height="200"><defs><style type="text/css"></style></defs><path d="M512 1010.667c-278.352 0-504-225.65-504-504s225.65-504 504-504c278.352 0 504 225.65 504 504 0 278.352-225.65 504-504 504zM512 94.303c-227.743 0-412.364 184.621-412.364 412.364s184.621 412.364 412.364 412.364c227.743 0 412.364-184.621 412.364-412.364 0-227.743-184.621-412.364-412.364-412.364zM674.196 733.421l-162.196-161.967-162.196 161.967-64.602-64.787 162.196-161.967-162.196-162.013 64.602-64.787 162.196 162.013 162.196-162.013 64.602 64.787-162.196 162.013 162.196 161.967z" p-id="14267" fill="#d81e06"></path></svg>