<?xml version="1.0" standalone="no"?><!DOCTYPE svg PUBLIC "-//W3C//DTD SVG 1.1//EN" "http://www.w3.org/Graphics/SVG/1.1/DTD/svg11.dtd"><svg t="1492695911981" class="icon" style="" viewBox="0 0 1024 1024" version="1.1" xmlns="http://www.w3.org/2000/svg" p-id="2158" xmlns:xlink="http://www.w3.org/1999/xlink" width="200" height="200"><defs><style type="text/css"></style></defs><path d="M512.006 2C230.336 2 2 230.312 2 512s228.336 510 510.006 510C793.684 1022 1022 793.688 1022 512S793.684 2 512.006 2zM849.936 791.676c-43.818-18.298-147.294-54.198-211.286-73.1-5.504-1.718-6.32-1.992-6.32-24.718 0-18.768 7.688-37.672 15.218-53.67 8.192-17.382 17.87-46.608 21.302-72.826 9.754-11.278 22.98-33.518 31.45-75.91 7.49-37.36 3.978-50.958-0.938-63.716-0.546-1.348-1.092-2.672-1.446-4-1.872-8.76 0.664-54.274 7.064-89.584 4.448-24.232-1.092-75.752-34.456-118.38-21.07-26.942-61.412-60.01-135.042-64.614l-40.374 0.04c-72.378 4.566-112.706 37.632-133.774 64.574-33.362 42.628-38.902 94.152-34.494 118.362 6.416 35.332 8.976 80.846 7.14 89.43-0.41 1.502-0.956 2.83-1.482 4.174-4.938 12.76-8.428 26.356-0.958 63.716 8.488 42.392 21.714 64.632 31.45 75.91 3.454 26.218 13.13 55.444 21.304 72.826 5.99 12.72 8.78 30.026 8.78 54.49 0 22.728-0.838 23-5.97 24.622-66.214 19.546-171.604 57.63-210.894 74.836C111.578 717.6 72.5 618.806 72.5 511.02c0-242.342 197.16-439.502 439.504-439.502 242.332 0 439.492 197.16 439.492 439.502C951.498 617.634 913.302 715.492 849.936 791.676z" p-id="2159" fill="#1296db"></path></svg>