<?xml version="1.0" standalone="no"?><!DOCTYPE svg PUBLIC "-//W3C//DTD SVG 1.1//EN" "http://www.w3.org/Graphics/SVG/1.1/DTD/svg11.dtd"><svg t="1492676665643" class="icon" style="" viewBox="0 0 1024 1024" version="1.1" xmlns="http://www.w3.org/2000/svg" p-id="30160" xmlns:xlink="http://www.w3.org/1999/xlink" width="64" height="64"><defs><style type="text/css"></style></defs><path d="M112.488296 0h797.582223c60.150519 4.020148 111.502222 56.054519 113.929481 116.508444v790.90726c-2.351407 59.998815-52.868741 111.578074-112.488296 116.584296H113.777778c-60.074667-4.096-111.198815-55.978667-113.777778-116.280889V113.777778C4.096 54.916741 53.778963 5.006222 112.488296 0m330.562371 224.44563c-82.981926 19.26637-155.799704 76.913778-194.180741 152.841481-46.042074 87.760593-42.780444 199.035259 7.888593 284.141037 62.27437 109.833481 199.49037 169.14963 322.142814 138.581333 85.712593-19.114667 160.57837-79.265185 198.883556-158.075259 34.360889-69.404444 38.912-152.538074 14.108444-225.735111-29.354667-86.471111-100.882963-157.620148-188.112592-185.230222-51.579259-17.066667-107.861333-19.114667-160.730074-6.523259z" fill="#5EAAF7" p-id="30161"></path><path d="M456.855704 267.908741c119.314963-29.733926 251.600593 43.690667 290.664296 159.819852 39.518815 104.523852-2.654815 231.272296-96.180148 292.029629-96.559407 67.659852-239.843556 52.261926-319.639704-34.588444-83.512889-83.285333-93.146074-227.176296-21.466074-320.853334 35.271111-48.241778 88.215704-83.361185 146.62163-96.407703m-11.908741 136.760889c-0.151704 71.528296-0.151704 143.132444 0 214.66074 53.854815-35.65037 107.557926-71.452444 161.185185-107.406222-53.778963-35.65037-107.33037-71.68-161.185185-107.254518z" fill="#5EAAF7" p-id="30162"></path><path d="M443.050667 224.44563c52.868741-12.591407 109.150815-10.543407 160.730074 6.523259 87.22963 27.610074 158.757926 98.759111 188.112592 185.230222 24.803556 73.197037 20.252444 156.330667-14.108444 225.735111-38.305185 78.810074-113.170963 138.960593-198.883556 158.075259-122.652444 30.568296-259.868444-28.747852-322.142814-138.581333-50.669037-85.105778-53.930667-196.380444-7.888593-284.141037 38.381037-75.927704 111.198815-133.575111 194.180741-152.841481m13.805037 43.463111c-58.405926 13.046519-111.350519 48.165926-146.62163 96.407703-71.68 93.677037-62.046815 237.568 21.466074 320.853334 79.796148 86.85037 223.080296 102.248296 319.639704 34.588444 93.525333-60.757333 135.698963-187.505778 96.180148-292.029629C708.456296 311.599407 576.170667 238.174815 456.855704 267.908741z" fill="#FFFFFF" p-id="30163"></path><path d="M444.946963 404.66963c53.854815 35.574519 107.406222 71.604148 161.185185 107.254518-53.627259 35.953778-107.33037 71.755852-161.185185 107.406222-0.151704-71.528296-0.151704-143.132444 0-214.66074z" fill="#FFFFFF" p-id="30164"></path></svg>