<?xml version="1.0" standalone="no"?><!DOCTYPE svg PUBLIC "-//W3C//DTD SVG 1.1//EN" "http://www.w3.org/Graphics/SVG/1.1/DTD/svg11.dtd"><svg t="1492855615217" class="icon" style="" viewBox="0 0 1024 1024" version="1.1" xmlns="http://www.w3.org/2000/svg" p-id="4982" xmlns:xlink="http://www.w3.org/1999/xlink" width="200" height="200"><defs><style type="text/css"></style></defs><path d="M1024 358.4H0V153.6c0-56.32 46.08-102.4 102.4-102.4h819.2c56.32 0 102.4 46.08 102.4 102.4v204.8z" fill="#00C9FC" p-id="4983"></path><path d="M0 358.4h1024v307.2H0z" fill="#FF5056" p-id="4984"></path><path d="M921.6 972.8H102.4c-56.32 0-102.4-46.08-102.4-102.4v-204.8h1024v204.8c0 56.32-46.08 102.4-102.4 102.4z" fill="#5ED300" p-id="4985"></path><path d="M409.6 51.2h204.8v921.6H409.6z" fill="#FFAB00" p-id="4986"></path><path d="M537.6 460.8c30.72 0 51.2 20.48 51.2 51.2s-20.48 51.2-51.2 51.2h-51.2c-30.72 0-51.2-20.48-51.2-51.2s20.48-51.2 51.2-51.2h51.2m0-51.2h-51.2c-56.32 0-102.4 46.08-102.4 102.4s46.08 102.4 102.4 102.4h51.2c56.32 0 102.4-46.08 102.4-102.4s-46.08-102.4-102.4-102.4z" fill="#FFFFFF" p-id="4987"></path></svg>